<mxfile host="65bd71144e">
    <diagram id="1M2pAyouUH7xbFSrhnDb" name="Page-1">
        <mxGraphModel dx="826" dy="1770" grid="1" gridSize="10" guides="1" tooltips="1" connect="1" arrows="1" fold="1" page="1" pageScale="1" pageWidth="850" pageHeight="1100" background="none" math="0" shadow="0">
            <root>
                <mxCell id="0"/>
                <mxCell id="1" parent="0"/>
                <mxCell id="RLTR6QcAhF7Ijwqn-D9D-1" value="&lt;p style=&quot;margin: 0px ; margin-top: 4px ; text-align: center&quot;&gt;&lt;br&gt;&lt;b&gt;Customer&lt;/b&gt;&lt;/p&gt;&lt;hr size=&quot;1&quot;&gt;&lt;p style=&quot;margin: 0px ; margin-left: 4px&quot;&gt;-name: String&lt;br&gt;-Cus ID: Integer&lt;/p&gt;&lt;p style=&quot;margin: 0px ; margin-left: 4px&quot;&gt;-CusPassword: String&lt;/p&gt;&lt;p style=&quot;margin: 0px ; margin-left: 4px&quot;&gt;-phone: String&lt;/p&gt;&lt;p style=&quot;margin: 0px ; margin-left: 4px&quot;&gt;-email: String&amp;nbsp;&lt;/p&gt;&lt;p style=&quot;margin: 0px ; margin-left: 4px&quot;&gt;-address: Address&lt;/p&gt;&lt;hr size=&quot;1&quot;&gt;&lt;p style=&quot;margin: 0px ; margin-left: 4px&quot;&gt;+ Add(name, phone)&lt;/p&gt;&lt;p style=&quot;margin: 0px ; margin-left: 4px&quot;&gt;+ register()&lt;/p&gt;&lt;p style=&quot;margin: 0px ; margin-left: 4px&quot;&gt;+ login()&lt;/p&gt;&lt;p style=&quot;margin: 0px ; margin-left: 4px&quot;&gt;+ updateinfo()&lt;/p&gt;&lt;p style=&quot;margin: 0px ; margin-left: 4px&quot;&gt;+ createProfile(): String&lt;/p&gt;&lt;p style=&quot;margin: 0px ; margin-left: 4px&quot;&gt;+ search()&lt;/p&gt;&lt;p style=&quot;margin: 0px ; margin-left: 4px&quot;&gt;+ viewHistory()&lt;/p&gt;&lt;p style=&quot;margin: 0px ; margin-left: 4px&quot;&gt;&lt;br&gt;&lt;/p&gt;" style="verticalAlign=top;align=left;overflow=fill;fontSize=12;fontFamily=Helvetica;html=1;glass=1;" parent="1" vertex="1">
                    <mxGeometry x="320" y="-528" width="210" height="250" as="geometry"/>
                </mxCell>
                <mxCell id="opRchIVWRDykoPJtatdR-14" style="edgeStyle=orthogonalEdgeStyle;rounded=1;jumpStyle=arc;orthogonalLoop=1;jettySize=auto;html=1;exitX=0;exitY=0.5;exitDx=0;exitDy=0;entryX=0.25;entryY=0;entryDx=0;entryDy=0;endArrow=none;endFill=0;endSize=14;startSize=14;targetPerimeterSpacing=8;sourcePerimeterSpacing=8;" parent="1" source="RLTR6QcAhF7Ijwqn-D9D-2" target="opRchIVWRDykoPJtatdR-13" edge="1">
                    <mxGeometry relative="1" as="geometry"/>
                </mxCell>
                <mxCell id="opRchIVWRDykoPJtatdR-29" value="Address" style="edgeLabel;html=1;align=center;verticalAlign=middle;resizable=0;points=[];fontSize=11;" parent="opRchIVWRDykoPJtatdR-14" vertex="1" connectable="0">
                    <mxGeometry x="0.1081" relative="1" as="geometry">
                        <mxPoint as="offset"/>
                    </mxGeometry>
                </mxCell>
                <mxCell id="RLTR6QcAhF7Ijwqn-D9D-2" value="&lt;p style=&quot;margin: 4px 0px 0px ; text-align: center&quot;&gt;&lt;b&gt;Address&lt;/b&gt;&lt;/p&gt;&lt;hr&gt;&lt;p style=&quot;margin: 0px ; margin-left: 8px&quot;&gt;-address ID: String&lt;br&gt;-street: String&lt;br&gt;-city: String&lt;/p&gt;&lt;p style=&quot;margin: 0px ; margin-left: 8px&quot;&gt;-state: String&lt;/p&gt;" style="verticalAlign=top;align=left;overflow=fill;fontSize=12;fontFamily=Helvetica;html=1;glass=1;gradientColor=none;" parent="1" vertex="1">
                    <mxGeometry x="320" y="-98" width="190" height="110" as="geometry"/>
                </mxCell>
                <mxCell id="RLTR6QcAhF7Ijwqn-D9D-89" style="rounded=0;jumpStyle=arc;orthogonalLoop=1;jettySize=auto;html=1;fontColor=#000000;endArrow=block;startSize=14;endSize=14;sourcePerimeterSpacing=8;targetPerimeterSpacing=8;endFill=0;entryX=0.286;entryY=1.005;entryDx=0;entryDy=0;entryPerimeter=0;exitX=0.327;exitY=-0.008;exitDx=0;exitDy=0;exitPerimeter=0;" parent="1" source="RLTR6QcAhF7Ijwqn-D9D-3" target="RLTR6QcAhF7Ijwqn-D9D-87" edge="1">
                    <mxGeometry relative="1" as="geometry">
                        <mxPoint x="810" y="-670" as="sourcePoint"/>
                        <mxPoint x="770" y="-740" as="targetPoint"/>
                    </mxGeometry>
                </mxCell>
                <mxCell id="RLTR6QcAhF7Ijwqn-D9D-3" value="&lt;p style=&quot;margin: 0px ; margin-top: 4px ; text-align: center&quot;&gt;&lt;i&gt;&lt;b&gt;ShoppingCart&lt;/b&gt;&lt;/i&gt;&lt;/p&gt;&lt;hr size=&quot;1&quot;&gt;&lt;p style=&quot;margin: 0px 0px 0px 8px&quot;&gt;-cart ID: Integer&lt;br&gt;-product ID: Integer&lt;/p&gt;&lt;p style=&quot;margin: 0px 0px 0px 8px&quot;&gt;-dateAdded: Date&lt;/p&gt;&lt;p style=&quot;margin: 0px 0px 0px 8px&quot;&gt;-customer ID: String&lt;/p&gt;&lt;p style=&quot;margin: 0px 0px 0px 8px&quot;&gt;-quantity: Integer&lt;/p&gt;&lt;p style=&quot;margin: 0px 0px 0px 8px&quot;&gt;-totalItems: String&lt;/p&gt;&lt;hr size=&quot;1&quot;&gt;&lt;p style=&quot;margin: 0px ; margin-left: 4px&quot;&gt;+ addItem()&lt;br&gt;+ removeItem()&lt;/p&gt;&lt;p style=&quot;margin: 0px ; margin-left: 4px&quot;&gt;+ editItem()&lt;/p&gt;&lt;p style=&quot;margin: 0px ; margin-left: 4px&quot;&gt;+ updateQuantity(): Integer&lt;/p&gt;&lt;p style=&quot;margin: 0px ; margin-left: 4px&quot;&gt;+ viewCartInfo(): String&lt;/p&gt;&lt;p style=&quot;margin: 0px ; margin-left: 4px&quot;&gt;+ checkOut()&lt;/p&gt;&lt;p style=&quot;margin: 0px ; margin-left: 4px&quot;&gt;+ cartTotalPrice(): float&lt;/p&gt;&lt;p style=&quot;margin: 0px ; margin-left: 4px&quot;&gt;+ addProductSelection(productSelection): void&lt;/p&gt;&lt;p style=&quot;margin: 0px ; margin-left: 4px&quot;&gt;+ removeProductSelection(productSelection): void&lt;/p&gt;&lt;p style=&quot;margin: 0px ; margin-left: 4px&quot;&gt;+ findProductSelection(productSelection): void&lt;/p&gt;&lt;p style=&quot;margin: 0px ; margin-left: 4px&quot;&gt;+ checkOut()&lt;/p&gt;&lt;p style=&quot;margin: 0px ; margin-left: 4px&quot;&gt;&lt;br&gt;&lt;/p&gt;" style="verticalAlign=top;align=left;overflow=fill;fontSize=12;fontFamily=Helvetica;html=1;glass=1;gradientColor=none;" parent="1" vertex="1">
                    <mxGeometry x="680" y="-638" width="280" height="290" as="geometry"/>
                </mxCell>
                <mxCell id="RLTR6QcAhF7Ijwqn-D9D-4" value="&lt;p style=&quot;margin: 0px ; margin-top: 4px ; text-align: center&quot;&gt;&lt;i&gt;&lt;b&gt;Order&lt;/b&gt;&lt;/i&gt;&lt;/p&gt;&lt;hr size=&quot;1&quot;&gt;&lt;p style=&quot;margin: 0px ; margin-left: 4px&quot;&gt;-orderID: String&lt;/p&gt;&lt;p style=&quot;margin: 0px ; margin-left: 4px&quot;&gt;-customerID: String&lt;/p&gt;&lt;p style=&quot;margin: 0px ; margin-left: 4px&quot;&gt;-shippingID: String&lt;/p&gt;&lt;p style=&quot;margin: 0px ; margin-left: 4px&quot;&gt;-customerName: String&lt;/p&gt;&lt;p style=&quot;margin: 0px ; margin-left: 4px&quot;&gt;-dateShipped: Date&lt;/p&gt;&lt;p style=&quot;margin: 0px ; margin-left: 4px&quot;&gt;-orderDate: Date&lt;/p&gt;&lt;p style=&quot;margin: 0px ; margin-left: 4px&quot;&gt;-totalPrice: float&lt;/p&gt;&lt;p style=&quot;margin: 0px ; margin-left: 4px&quot;&gt;-productID: Integer&lt;/p&gt;&lt;p style=&quot;margin: 0px ; margin-left: 4px&quot;&gt;-shippingPrice: float&lt;/p&gt;&lt;hr size=&quot;1&quot;&gt;&lt;p style=&quot;margin: 0px ; margin-left: 4px&quot;&gt;+ calculateSubTotal(): float&lt;/p&gt;&lt;p style=&quot;margin: 0px ; margin-left: 4px&quot;&gt;+ calculateTax(): float&lt;/p&gt;&lt;p style=&quot;margin: 0px ; margin-left: 4px&quot;&gt;+ calculateTotalQuantity(): Integer&lt;/p&gt;&lt;p style=&quot;margin: 0px ; margin-left: 4px&quot;&gt;+ calculateShippedPrice(): float&lt;/p&gt;&lt;p style=&quot;margin: 0px ; margin-left: 4px&quot;&gt;+ calculateTotalPrice(): float&lt;/p&gt;&lt;p style=&quot;margin: 0px ; margin-left: 4px&quot;&gt;+ calculateTotalWeight(): Integer&lt;/p&gt;&lt;p style=&quot;margin: 0px ; margin-left: 4px&quot;&gt;&lt;span&gt;+ placeOrder(creditCard): void&lt;/span&gt;&lt;br&gt;&lt;/p&gt;" style="verticalAlign=top;align=left;overflow=fill;fontSize=12;fontFamily=Helvetica;html=1;glass=1;gradientColor=none;" parent="1" vertex="1">
                    <mxGeometry x="800" y="-178" width="240" height="280" as="geometry"/>
                </mxCell>
                <mxCell id="RLTR6QcAhF7Ijwqn-D9D-5" value="&lt;p style=&quot;margin: 0px ; margin-top: 4px ; text-align: center&quot;&gt;&lt;i&gt;&lt;b&gt;Shipment&lt;/b&gt;&lt;/i&gt;&lt;br&gt;&lt;/p&gt;&lt;hr size=&quot;1&quot;&gt;&lt;p style=&quot;margin: 0px ; margin-left: 4px&quot;&gt;-shippingID: String&lt;br&gt;-shippingType: String&lt;/p&gt;&lt;p style=&quot;margin: 0px ; margin-left: 4px&quot;&gt;-shippedDate: Date&lt;/p&gt;&lt;p style=&quot;margin: 0px ; margin-left: 4px&quot;&gt;-shippingAddress: String&lt;/p&gt;&lt;p style=&quot;margin: 0px ; margin-left: 4px&quot;&gt;-shippingSignature: Boolean&lt;/p&gt;&lt;p style=&quot;margin: 0px ; margin-left: 4px&quot;&gt;-shippedTracking: String&lt;/p&gt;&lt;hr size=&quot;1&quot;&gt;&lt;p style=&quot;margin: 0px ; margin-left: 4px&quot;&gt;+ updateShippingInfo()&lt;/p&gt;&lt;p style=&quot;margin: 0px ; margin-left: 4px&quot;&gt;+ getOrder()&lt;/p&gt;&lt;p style=&quot;margin: 0px ; margin-left: 4px&quot;&gt;+ delivery()&lt;/p&gt;&lt;p style=&quot;margin: 0px ; margin-left: 4px&quot;&gt;+ getShippingTracking(): String&lt;br&gt;+ getShippingPrice(): float&lt;/p&gt;&lt;p style=&quot;margin: 0px ; margin-left: 4px&quot;&gt;+ getShippingDate: Date&lt;/p&gt;&lt;p style=&quot;margin: 0px ; margin-left: 4px&quot;&gt;+ chooseShippingType(): String&lt;/p&gt;&lt;p style=&quot;margin: 0px ; margin-left: 4px&quot;&gt;&lt;br&gt;&lt;/p&gt;" style="verticalAlign=top;align=left;overflow=fill;fontSize=12;fontFamily=Helvetica;html=1;glass=1;gradientColor=none;" parent="1" vertex="1">
                    <mxGeometry x="530" y="22" width="200" height="240" as="geometry"/>
                </mxCell>
                <mxCell id="RLTR6QcAhF7Ijwqn-D9D-6" value="" style="endArrow=diamondThin;endFill=1;endSize=24;html=1;entryX=0;entryY=0.5;entryDx=0;entryDy=0;" parent="1" edge="1">
                    <mxGeometry width="160" relative="1" as="geometry">
                        <mxPoint x="480" y="-278" as="sourcePoint"/>
                        <mxPoint x="550" y="-163" as="targetPoint"/>
                        <Array as="points">
                            <mxPoint x="480" y="-163"/>
                        </Array>
                    </mxGeometry>
                </mxCell>
                <mxCell id="cUFNFo306vV55nXhxXvZ-5" value="Purchased_by" style="edgeLabel;html=1;align=center;verticalAlign=middle;resizable=0;points=[];" parent="RLTR6QcAhF7Ijwqn-D9D-6" vertex="1" connectable="0">
                    <mxGeometry x="-0.2973" y="-2" relative="1" as="geometry">
                        <mxPoint as="offset"/>
                    </mxGeometry>
                </mxCell>
                <mxCell id="8y4mUMSOWg4zhXPtsHZU-3" value="Purchaser" style="edgeLabel;html=1;align=center;verticalAlign=middle;resizable=0;points=[];" parent="RLTR6QcAhF7Ijwqn-D9D-6" vertex="1" connectable="0">
                    <mxGeometry x="-0.8595" relative="1" as="geometry">
                        <mxPoint x="30" y="-5" as="offset"/>
                    </mxGeometry>
                </mxCell>
                <mxCell id="8y4mUMSOWg4zhXPtsHZU-4" value="&amp;nbsp;Payment card" style="edgeLabel;html=1;align=center;verticalAlign=middle;resizable=0;points=[];" parent="RLTR6QcAhF7Ijwqn-D9D-6" vertex="1" connectable="0">
                    <mxGeometry x="0.5243" y="1" relative="1" as="geometry">
                        <mxPoint x="4" y="14" as="offset"/>
                    </mxGeometry>
                </mxCell>
                <mxCell id="RLTR6QcAhF7Ijwqn-D9D-7" value="" style="endArrow=diamondThin;endFill=1;endSize=24;html=1;exitX=0;exitY=0.5;exitDx=0;exitDy=0;entryX=1;entryY=0.5;entryDx=0;entryDy=0;" parent="1" source="RLTR6QcAhF7Ijwqn-D9D-4" edge="1">
                    <mxGeometry width="160" relative="1" as="geometry">
                        <mxPoint x="660" y="-328" as="sourcePoint"/>
                        <mxPoint x="710" y="-163" as="targetPoint"/>
                        <Array as="points">
                            <mxPoint x="750" y="-38"/>
                            <mxPoint x="750" y="-163"/>
                        </Array>
                    </mxGeometry>
                </mxCell>
                <mxCell id="cUFNFo306vV55nXhxXvZ-6" value="Payment_by" style="edgeLabel;html=1;align=center;verticalAlign=middle;resizable=0;points=[];" parent="RLTR6QcAhF7Ijwqn-D9D-7" vertex="1" connectable="0">
                    <mxGeometry x="-0.0233" relative="1" as="geometry">
                        <mxPoint as="offset"/>
                    </mxGeometry>
                </mxCell>
                <mxCell id="RLTR6QcAhF7Ijwqn-D9D-8" value="&lt;p style=&quot;margin: 0px ; margin-top: 4px ; text-align: center&quot;&gt;&lt;b&gt;Product&lt;/b&gt;&lt;/p&gt;&lt;hr size=&quot;1&quot;&gt;&lt;p style=&quot;margin: 0px ; margin-left: 4px&quot;&gt;+ productID: Integer&lt;br&gt;+ productName: String&lt;/p&gt;&lt;p style=&quot;margin: 0px ; margin-left: 4px&quot;&gt;+ productDescription: String&lt;/p&gt;&lt;p style=&quot;margin: 0px ; margin-left: 4px&quot;&gt;+ productAddress: String&lt;/p&gt;&lt;p style=&quot;margin: 0px ; margin-left: 4px&quot;&gt;+ productPrice: float&lt;/p&gt;&lt;p style=&quot;margin: 0px ; margin-left: 4px&quot;&gt;+ productUnit: String&lt;/p&gt;&lt;p style=&quot;margin: 0px ; margin-left: 4px&quot;&gt;+ quantityInStock: Integer&lt;/p&gt;&lt;hr size=&quot;1&quot;&gt;&lt;p style=&quot;margin: 0px ; margin-left: 4px&quot;&gt;+ getProductDetails(): String&lt;/p&gt;&lt;p style=&quot;margin: 0px ; margin-left: 4px&quot;&gt;+ getImages(): String&lt;/p&gt;&lt;p style=&quot;margin: 0px ; margin-left: 4px&quot;&gt;+ getSupplierInfo(Supplier): void&lt;/p&gt;&lt;p style=&quot;margin: 0px ; margin-left: 4px&quot;&gt;+ inStock()&lt;/p&gt;&lt;p style=&quot;margin: 0px ; margin-left: 4px&quot;&gt;+ getPriceForQuantity(): float&lt;br&gt;+ restock()&lt;/p&gt;&lt;p style=&quot;margin: 0px ; margin-left: 4px&quot;&gt;+ updatePrice(): float&lt;/p&gt;&lt;p style=&quot;margin: 0px ; margin-left: 4px&quot;&gt;+ getTax(): float&lt;/p&gt;" style="verticalAlign=top;align=left;overflow=fill;fontSize=12;fontFamily=Helvetica;html=1;hachureGap=4;pointerEvents=0;" parent="1" vertex="1">
                    <mxGeometry x="1060" y="-398" width="190" height="260" as="geometry"/>
                </mxCell>
                <mxCell id="RLTR6QcAhF7Ijwqn-D9D-9" value="Purchase" style="endArrow=open;html=1;endSize=12;startArrow=diamondThin;startSize=14;startFill=0;edgeStyle=orthogonalEdgeStyle;sourcePerimeterSpacing=8;targetPerimeterSpacing=8;entryX=0.576;entryY=0.994;entryDx=0;entryDy=0;entryPerimeter=0;" parent="1" target="RLTR6QcAhF7Ijwqn-D9D-8" edge="1">
                    <mxGeometry x="-0.1111" relative="1" as="geometry">
                        <mxPoint x="1040" y="-68" as="sourcePoint"/>
                        <mxPoint x="1170" y="-130" as="targetPoint"/>
                        <Array as="points">
                            <mxPoint x="1170" y="-68"/>
                            <mxPoint x="1170" y="-130"/>
                        </Array>
                        <mxPoint as="offset"/>
                    </mxGeometry>
                </mxCell>
                <mxCell id="RLTR6QcAhF7Ijwqn-D9D-10" value="0..n" style="edgeLabel;resizable=0;html=1;align=left;verticalAlign=top;" parent="RLTR6QcAhF7Ijwqn-D9D-9" connectable="0" vertex="1">
                    <mxGeometry x="-1" relative="1" as="geometry"/>
                </mxCell>
                <mxCell id="RLTR6QcAhF7Ijwqn-D9D-11" value="1&amp;nbsp;" style="edgeLabel;resizable=0;html=1;align=right;verticalAlign=top;" parent="RLTR6QcAhF7Ijwqn-D9D-9" connectable="0" vertex="1">
                    <mxGeometry x="1" relative="1" as="geometry">
                        <mxPoint x="13" y="11" as="offset"/>
                    </mxGeometry>
                </mxCell>
                <mxCell id="RLTR6QcAhF7Ijwqn-D9D-12" value="&lt;p style=&quot;margin: 0px ; margin-top: 4px ; text-align: center&quot;&gt;&lt;b&gt;Product Selection&amp;nbsp;&lt;/b&gt;&lt;/p&gt;&lt;hr size=&quot;1&quot;&gt;&lt;p style=&quot;margin: 0px ; margin-left: 4px&quot;&gt;+ productType: String&lt;/p&gt;&lt;p style=&quot;margin: 0px ; margin-left: 4px&quot;&gt;+ quantity: Integer&lt;/p&gt;&lt;p style=&quot;margin: 0px ; margin-left: 4px&quot;&gt;+ productName: String&lt;/p&gt;&lt;p style=&quot;margin: 0px ; margin-left: 4px&quot;&gt;+ productID: Integer&lt;/p&gt;&lt;p style=&quot;margin: 0px ; margin-left: 4px&quot;&gt;+ productDetails: String&lt;/p&gt;&lt;hr size=&quot;1&quot;&gt;&lt;p style=&quot;margin: 0px ; margin-left: 4px&quot;&gt;+ getSelectItems()&lt;/p&gt;&lt;p style=&quot;margin: 0px ; margin-left: 4px&quot;&gt;+ updateQuantity&lt;/p&gt;" style="verticalAlign=top;align=left;overflow=fill;fontSize=12;fontFamily=Helvetica;html=1;hachureGap=4;pointerEvents=0;" parent="1" vertex="1">
                    <mxGeometry x="1050" y="-608" width="200" height="150" as="geometry"/>
                </mxCell>
                <mxCell id="RLTR6QcAhF7Ijwqn-D9D-13" value="&lt;p style=&quot;margin: 0px ; margin-top: 4px ; text-align: center&quot;&gt;&lt;b&gt;Administration&amp;nbsp;&lt;/b&gt;&lt;/p&gt;&lt;hr size=&quot;1&quot;&gt;&lt;p style=&quot;margin: 0px ; margin-left: 4px&quot;&gt;-adminID: Integer&lt;/p&gt;&lt;p style=&quot;margin: 0px ; margin-left: 4px&quot;&gt;-adminName: String&lt;/p&gt;&lt;p style=&quot;margin: 0px ; margin-left: 4px&quot;&gt;-systemPassword: String&lt;/p&gt;&lt;p style=&quot;margin: 0px ; margin-left: 4px&quot;&gt;-transactionID: String&lt;/p&gt;&lt;hr size=&quot;1&quot;&gt;&lt;p style=&quot;margin: 0px ; margin-left: 4px&quot;&gt;-createProduct(): Integer&lt;br&gt;-createOnlineShoppingSystem()&lt;/p&gt;&lt;p style=&quot;margin: 0px ; margin-left: 4px&quot;&gt;-createProductSelection()&lt;/p&gt;&lt;p style=&quot;margin: 0px ; margin-left: 4px&quot;&gt;-deleteProductSelection()&lt;/p&gt;&lt;p style=&quot;margin: 0px ; margin-left: 4px&quot;&gt;-deleteProduct(): String&lt;/p&gt;&lt;p style=&quot;margin: 0px ; margin-left: 4px&quot;&gt;-checkSystem()&lt;/p&gt;&lt;p style=&quot;margin: 0px ; margin-left: 4px&quot;&gt;+getFeedback(): String&lt;/p&gt;" style="verticalAlign=top;align=left;overflow=fill;fontSize=12;fontFamily=Helvetica;html=1;hachureGap=4;pointerEvents=0;" parent="1" vertex="1">
                    <mxGeometry x="1380" y="-658" width="215" height="210" as="geometry"/>
                </mxCell>
                <mxCell id="RLTR6QcAhF7Ijwqn-D9D-14" value="creates" style="html=1;verticalAlign=bottom;endArrow=block;startSize=14;endSize=14;sourcePerimeterSpacing=8;targetPerimeterSpacing=8;entryX=1.01;entryY=0.58;entryDx=0;entryDy=0;entryPerimeter=0;" parent="1" target="RLTR6QcAhF7Ijwqn-D9D-12" edge="1">
                    <mxGeometry width="80" relative="1" as="geometry">
                        <mxPoint x="1380" y="-521" as="sourcePoint"/>
                        <mxPoint x="1260" y="-488" as="targetPoint"/>
                        <Array as="points">
                            <mxPoint x="1380" y="-521"/>
                        </Array>
                        <mxPoint as="offset"/>
                    </mxGeometry>
                </mxCell>
                <mxCell id="8y4mUMSOWg4zhXPtsHZU-1" value="&amp;nbsp; &amp;nbsp;Administrator" style="edgeLabel;html=1;align=center;verticalAlign=middle;resizable=0;points=[];" parent="RLTR6QcAhF7Ijwqn-D9D-14" vertex="1" connectable="0">
                    <mxGeometry x="-0.7031" y="-2" relative="1" as="geometry">
                        <mxPoint x="-21" y="13" as="offset"/>
                    </mxGeometry>
                </mxCell>
                <mxCell id="8y4mUMSOWg4zhXPtsHZU-2" value="Selection_System" style="edgeLabel;html=1;align=center;verticalAlign=middle;resizable=0;points=[];rotation=90;" parent="RLTR6QcAhF7Ijwqn-D9D-14" vertex="1" connectable="0">
                    <mxGeometry x="0.5781" relative="1" as="geometry">
                        <mxPoint x="-19" y="51" as="offset"/>
                    </mxGeometry>
                </mxCell>
                <mxCell id="RLTR6QcAhF7Ijwqn-D9D-15" value="&lt;p style=&quot;margin: 4px 0px 0px ; text-align: center&quot;&gt;&lt;b&gt;Credit card&amp;nbsp;&lt;/b&gt;&lt;br&gt;&lt;/p&gt;&lt;hr size=&quot;1&quot;&gt;&lt;p style=&quot;margin: 0px 0px 0px 4px&quot;&gt;-cardID: Integer&lt;/p&gt;&lt;p style=&quot;margin: 0px 0px 0px 4px&quot;&gt;-cardNum: Integer&lt;/p&gt;&lt;p style=&quot;margin: 0px 0px 0px 4px&quot;&gt;-expDate: Date&lt;/p&gt;&lt;p style=&quot;margin: 0px 0px 0px 4px&quot;&gt;-cardName: String&lt;/p&gt;&lt;hr size=&quot;1&quot;&gt;&lt;p style=&quot;margin: 0px ; margin-left: 4px&quot;&gt;+ totalAmount(): float&lt;/p&gt;&lt;p style=&quot;margin: 0px ; margin-left: 4px&quot;&gt;&lt;br&gt;&lt;/p&gt;" style="verticalAlign=top;align=left;overflow=fill;fontSize=12;fontFamily=Helvetica;html=1;hachureGap=4;pointerEvents=0;" parent="1" vertex="1">
                    <mxGeometry x="550" y="-233" width="160" height="135" as="geometry"/>
                </mxCell>
                <mxCell id="RLTR6QcAhF7Ijwqn-D9D-16" value="Addition" style="endArrow=open;html=1;endSize=12;startArrow=diamondThin;startSize=14;startFill=0;edgeStyle=orthogonalEdgeStyle;sourcePerimeterSpacing=8;targetPerimeterSpacing=8;" parent="1" edge="1">
                    <mxGeometry relative="1" as="geometry">
                        <mxPoint x="530" y="-418" as="sourcePoint"/>
                        <mxPoint x="680" y="-418" as="targetPoint"/>
                    </mxGeometry>
                </mxCell>
                <mxCell id="RLTR6QcAhF7Ijwqn-D9D-17" value="0..n" style="edgeLabel;resizable=0;html=1;align=left;verticalAlign=top;" parent="RLTR6QcAhF7Ijwqn-D9D-16" connectable="0" vertex="1">
                    <mxGeometry x="-1" relative="1" as="geometry"/>
                </mxCell>
                <mxCell id="RLTR6QcAhF7Ijwqn-D9D-18" value="1" style="edgeLabel;resizable=0;html=1;align=right;verticalAlign=top;" parent="RLTR6QcAhF7Ijwqn-D9D-16" connectable="0" vertex="1">
                    <mxGeometry x="1" relative="1" as="geometry"/>
                </mxCell>
                <mxCell id="8y4mUMSOWg4zhXPtsHZU-7" value="Purchaser" style="edgeLabel;html=1;align=center;verticalAlign=middle;resizable=0;points=[];" parent="RLTR6QcAhF7Ijwqn-D9D-16" vertex="1" connectable="0">
                    <mxGeometry x="-0.6133" y="-1" relative="1" as="geometry">
                        <mxPoint x="1" y="-13" as="offset"/>
                    </mxGeometry>
                </mxCell>
                <mxCell id="8y4mUMSOWg4zhXPtsHZU-8" value="Store items" style="edgeLabel;html=1;align=center;verticalAlign=middle;resizable=0;points=[];" parent="RLTR6QcAhF7Ijwqn-D9D-16" vertex="1" connectable="0">
                    <mxGeometry x="0.6933" y="2" relative="1" as="geometry">
                        <mxPoint x="-7" y="-20" as="offset"/>
                    </mxGeometry>
                </mxCell>
                <mxCell id="RLTR6QcAhF7Ijwqn-D9D-19" value="Processing" style="endArrow=open;html=1;endSize=12;startArrow=diamondThin;startSize=14;startFill=0;edgeStyle=orthogonalEdgeStyle;sourcePerimeterSpacing=8;targetPerimeterSpacing=8;entryX=0.568;entryY=-0.015;entryDx=0;entryDy=0;entryPerimeter=0;" parent="1" target="RLTR6QcAhF7Ijwqn-D9D-31" edge="1">
                    <mxGeometry relative="1" as="geometry">
                        <mxPoint x="948.9999999999995" y="102" as="sourcePoint"/>
                        <mxPoint x="1080" y="162" as="targetPoint"/>
                        <Array as="points">
                            <mxPoint x="949" y="132"/>
                        </Array>
                    </mxGeometry>
                </mxCell>
                <mxCell id="RLTR6QcAhF7Ijwqn-D9D-20" value="0..n" style="edgeLabel;resizable=0;html=1;align=left;verticalAlign=top;" parent="RLTR6QcAhF7Ijwqn-D9D-19" connectable="0" vertex="1">
                    <mxGeometry x="-1" relative="1" as="geometry"/>
                </mxCell>
                <mxCell id="RLTR6QcAhF7Ijwqn-D9D-21" value="1" style="edgeLabel;resizable=0;html=1;align=right;verticalAlign=top;" parent="RLTR6QcAhF7Ijwqn-D9D-19" connectable="0" vertex="1">
                    <mxGeometry x="1" relative="1" as="geometry">
                        <mxPoint x="10" y="-20" as="offset"/>
                    </mxGeometry>
                </mxCell>
                <mxCell id="RLTR6QcAhF7Ijwqn-D9D-22" value="Delivery" style="endArrow=open;html=1;endSize=12;startArrow=diamondThin;startSize=14;startFill=0;edgeStyle=orthogonalEdgeStyle;sourcePerimeterSpacing=8;targetPerimeterSpacing=8;entryX=0.579;entryY=1.009;entryDx=0;entryDy=0;entryPerimeter=0;" parent="1" target="RLTR6QcAhF7Ijwqn-D9D-2" edge="1">
                    <mxGeometry relative="1" as="geometry">
                        <mxPoint x="530" y="137" as="sourcePoint"/>
                        <mxPoint x="470" y="242" as="targetPoint"/>
                        <Array as="points">
                            <mxPoint x="430" y="137"/>
                        </Array>
                    </mxGeometry>
                </mxCell>
                <mxCell id="RLTR6QcAhF7Ijwqn-D9D-23" value="1" style="edgeLabel;resizable=0;html=1;align=left;verticalAlign=top;" parent="RLTR6QcAhF7Ijwqn-D9D-22" connectable="0" vertex="1">
                    <mxGeometry x="-1" relative="1" as="geometry">
                        <mxPoint x="-10" y="-27" as="offset"/>
                    </mxGeometry>
                </mxCell>
                <mxCell id="RLTR6QcAhF7Ijwqn-D9D-24" value="1" style="edgeLabel;resizable=0;html=1;align=right;verticalAlign=top;" parent="RLTR6QcAhF7Ijwqn-D9D-22" connectable="0" vertex="1">
                    <mxGeometry x="1" relative="1" as="geometry">
                        <mxPoint y="9" as="offset"/>
                    </mxGeometry>
                </mxCell>
                <mxCell id="cUFNFo306vV55nXhxXvZ-13" value="destination" style="edgeLabel;html=1;align=center;verticalAlign=middle;resizable=0;points=[];" parent="RLTR6QcAhF7Ijwqn-D9D-22" vertex="1" connectable="0">
                    <mxGeometry x="0.8035" y="-1" relative="1" as="geometry">
                        <mxPoint x="39" y="-15" as="offset"/>
                    </mxGeometry>
                </mxCell>
                <mxCell id="cUFNFo306vV55nXhxXvZ-14" value="Begin_Shipping" style="edgeLabel;html=1;align=center;verticalAlign=middle;resizable=0;points=[];" parent="RLTR6QcAhF7Ijwqn-D9D-22" vertex="1" connectable="0">
                    <mxGeometry x="-0.6786" y="1" relative="1" as="geometry">
                        <mxPoint x="-4" y="12" as="offset"/>
                    </mxGeometry>
                </mxCell>
                <mxCell id="RLTR6QcAhF7Ijwqn-D9D-25" value="" style="endArrow=none;html=1;edgeStyle=orthogonalEdgeStyle;startSize=14;endSize=14;sourcePerimeterSpacing=8;targetPerimeterSpacing=8;exitX=0.376;exitY=1.004;exitDx=0;exitDy=0;exitPerimeter=0;entryX=0.416;entryY=-0.018;entryDx=0;entryDy=0;entryPerimeter=0;" parent="1" source="RLTR6QcAhF7Ijwqn-D9D-1" target="RLTR6QcAhF7Ijwqn-D9D-2" edge="1">
                    <mxGeometry relative="1" as="geometry">
                        <mxPoint x="400" y="-238" as="sourcePoint"/>
                        <mxPoint x="399" y="-108" as="targetPoint"/>
                        <Array as="points"/>
                    </mxGeometry>
                </mxCell>
                <mxCell id="RLTR6QcAhF7Ijwqn-D9D-26" value="Resident" style="edgeLabel;resizable=0;html=1;align=left;verticalAlign=bottom;" parent="RLTR6QcAhF7Ijwqn-D9D-25" connectable="0" vertex="1">
                    <mxGeometry x="-1" relative="1" as="geometry">
                        <mxPoint y="19" as="offset"/>
                    </mxGeometry>
                </mxCell>
                <mxCell id="RLTR6QcAhF7Ijwqn-D9D-27" value="Residence" style="edgeLabel;resizable=0;html=1;align=right;verticalAlign=bottom;" parent="RLTR6QcAhF7Ijwqn-D9D-25" connectable="0" vertex="1">
                    <mxGeometry x="1" relative="1" as="geometry">
                        <mxPoint x="-9" y="-8" as="offset"/>
                    </mxGeometry>
                </mxCell>
                <mxCell id="RLTR6QcAhF7Ijwqn-D9D-28" value="" style="endArrow=open;html=1;endSize=12;startArrow=diamondThin;startSize=14;startFill=0;edgeStyle=orthogonalEdgeStyle;sourcePerimeterSpacing=8;targetPerimeterSpacing=8;" parent="1" edge="1">
                    <mxGeometry relative="1" as="geometry">
                        <mxPoint x="870" y="-348" as="sourcePoint"/>
                        <mxPoint x="870" y="-181" as="targetPoint"/>
                        <Array as="points">
                            <mxPoint x="870" y="-218"/>
                            <mxPoint x="870" y="-218"/>
                        </Array>
                    </mxGeometry>
                </mxCell>
                <mxCell id="RLTR6QcAhF7Ijwqn-D9D-29" value="&amp;nbsp;1" style="edgeLabel;resizable=0;html=1;align=left;verticalAlign=top;" parent="RLTR6QcAhF7Ijwqn-D9D-28" connectable="0" vertex="1">
                    <mxGeometry x="-1" relative="1" as="geometry">
                        <mxPoint x="10" y="-2" as="offset"/>
                    </mxGeometry>
                </mxCell>
                <mxCell id="RLTR6QcAhF7Ijwqn-D9D-30" value="0..n&amp;nbsp;" style="edgeLabel;resizable=0;html=1;align=right;verticalAlign=top;" parent="RLTR6QcAhF7Ijwqn-D9D-28" connectable="0" vertex="1">
                    <mxGeometry x="1" relative="1" as="geometry">
                        <mxPoint x="-10" y="-19" as="offset"/>
                    </mxGeometry>
                </mxCell>
                <mxCell id="cUFNFo306vV55nXhxXvZ-4" value="Ready to purchase&amp;nbsp;" style="edgeLabel;html=1;align=center;verticalAlign=middle;resizable=0;points=[];" parent="RLTR6QcAhF7Ijwqn-D9D-28" vertex="1" connectable="0">
                    <mxGeometry x="-0.0659" y="-1" relative="1" as="geometry">
                        <mxPoint x="11" as="offset"/>
                    </mxGeometry>
                </mxCell>
                <mxCell id="8y4mUMSOWg4zhXPtsHZU-5" value="Store items" style="edgeLabel;html=1;align=center;verticalAlign=middle;resizable=0;points=[];" parent="RLTR6QcAhF7Ijwqn-D9D-28" vertex="1" connectable="0">
                    <mxGeometry x="-0.7246" relative="1" as="geometry">
                        <mxPoint x="-40" y="-15" as="offset"/>
                    </mxGeometry>
                </mxCell>
                <mxCell id="8y4mUMSOWg4zhXPtsHZU-6" value="Order" style="edgeLabel;html=1;align=center;verticalAlign=middle;resizable=0;points=[];" parent="RLTR6QcAhF7Ijwqn-D9D-28" vertex="1" connectable="0">
                    <mxGeometry x="0.7126" y="-1" relative="1" as="geometry">
                        <mxPoint x="21" y="15" as="offset"/>
                    </mxGeometry>
                </mxCell>
                <mxCell id="RLTR6QcAhF7Ijwqn-D9D-31" value="&lt;p style=&quot;margin: 0px ; margin-top: 4px ; text-align: center&quot;&gt;&lt;b&gt;Payment&lt;/b&gt;&lt;/p&gt;&lt;hr size=&quot;1&quot;&gt;&lt;p style=&quot;margin: 0px ; margin-left: 4px&quot;&gt;-totalAmount: float&lt;/p&gt;&lt;hr size=&quot;1&quot;&gt;&lt;p style=&quot;margin: 0px ; margin-left: 4px&quot;&gt;-getSubTotal(): float&lt;/p&gt;&lt;p style=&quot;margin: 0px ; margin-left: 4px&quot;&gt;-getTotalPrice(): float&lt;/p&gt;&lt;p style=&quot;margin: 0px ; margin-left: 4px&quot;&gt;-makePayment(): String&lt;/p&gt;&lt;p style=&quot;margin: 0px ; margin-left: 4px&quot;&gt;-payTotalPrice(): float&lt;/p&gt;" style="verticalAlign=top;align=left;overflow=fill;fontSize=12;fontFamily=Helvetica;html=1;hachureGap=4;pointerEvents=0;" parent="1" vertex="1">
                    <mxGeometry x="830" y="192" width="210" height="120" as="geometry"/>
                </mxCell>
                <mxCell id="RLTR6QcAhF7Ijwqn-D9D-32" value="" style="endArrow=open;endFill=1;endSize=12;html=1;sourcePerimeterSpacing=8;targetPerimeterSpacing=8;entryX=1.01;entryY=0.648;entryDx=0;entryDy=0;entryPerimeter=0;exitX=0;exitY=0.5;exitDx=0;exitDy=0;" parent="1" source="RLTR6QcAhF7Ijwqn-D9D-31" target="RLTR6QcAhF7Ijwqn-D9D-5" edge="1">
                    <mxGeometry width="160" relative="1" as="geometry">
                        <mxPoint x="819" y="232" as="sourcePoint"/>
                        <mxPoint x="770" y="212" as="targetPoint"/>
                        <Array as="points"/>
                    </mxGeometry>
                </mxCell>
                <mxCell id="RLTR6QcAhF7Ijwqn-D9D-33" value="" style="endArrow=none;html=1;edgeStyle=orthogonalEdgeStyle;startSize=14;endSize=14;sourcePerimeterSpacing=8;targetPerimeterSpacing=8;entryX=0;entryY=0.75;entryDx=0;entryDy=0;" parent="1" target="RLTR6QcAhF7Ijwqn-D9D-4" edge="1">
                    <mxGeometry relative="1" as="geometry">
                        <mxPoint x="732" y="100.99999999999955" as="sourcePoint"/>
                        <mxPoint x="780" y="52" as="targetPoint"/>
                    </mxGeometry>
                </mxCell>
                <mxCell id="RLTR6QcAhF7Ijwqn-D9D-34" value="1" style="edgeLabel;resizable=0;html=1;align=left;verticalAlign=bottom;" parent="RLTR6QcAhF7Ijwqn-D9D-33" connectable="0" vertex="1">
                    <mxGeometry x="-1" relative="1" as="geometry"/>
                </mxCell>
                <mxCell id="RLTR6QcAhF7Ijwqn-D9D-35" value="0..n&amp;nbsp;" style="edgeLabel;resizable=0;html=1;align=right;verticalAlign=bottom;" parent="RLTR6QcAhF7Ijwqn-D9D-33" connectable="0" vertex="1">
                    <mxGeometry x="1" relative="1" as="geometry"/>
                </mxCell>
                <mxCell id="cUFNFo306vV55nXhxXvZ-1" value="&lt;font style=&quot;font-size: 8px&quot;&gt;Ready for delivery&lt;/font&gt;" style="edgeLabel;html=1;align=center;verticalAlign=middle;resizable=0;points=[];" parent="RLTR6QcAhF7Ijwqn-D9D-33" vertex="1" connectable="0">
                    <mxGeometry x="0.0657" relative="1" as="geometry">
                        <mxPoint as="offset"/>
                    </mxGeometry>
                </mxCell>
                <mxCell id="RLTR6QcAhF7Ijwqn-D9D-36" value="&lt;p style=&quot;margin: 0px ; margin-top: 4px ; text-align: center&quot;&gt;&lt;b&gt;Supplier&lt;/b&gt;&lt;/p&gt;&lt;hr size=&quot;1&quot;&gt;&lt;p style=&quot;margin: 0px ; margin-left: 4px&quot;&gt;+ supplierID: Integer&lt;br&gt;+ supplierName: String&lt;/p&gt;&lt;p style=&quot;margin: 0px ; margin-left: 4px&quot;&gt;+ sellingAddress: String&lt;/p&gt;&lt;p style=&quot;margin: 0px ; margin-left: 4px&quot;&gt;+ retailerDetails: String&lt;/p&gt;&lt;p style=&quot;margin: 0px ; margin-left: 4px&quot;&gt;+ retailerDescription: String&lt;/p&gt;&lt;p style=&quot;margin: 0px ; margin-left: 4px&quot;&gt;+ phoneNum: Integer&lt;/p&gt;&lt;p style=&quot;margin: 0px ; margin-left: 4px&quot;&gt;+ email: String&lt;/p&gt;&lt;hr size=&quot;1&quot;&gt;&lt;p style=&quot;margin: 0px ; margin-left: 4px&quot;&gt;+ provideProduct()&lt;/p&gt;&lt;p style=&quot;margin: 0px ; margin-left: 4px&quot;&gt;+ getProduct(product): void&lt;/p&gt;&lt;p style=&quot;margin: 0px ; margin-left: 4px&quot;&gt;+ checkProductInfo(): String&lt;/p&gt;&lt;p style=&quot;margin: 0px ; margin-left: 4px&quot;&gt;+ checkInventory()&lt;/p&gt;&lt;p style=&quot;margin: 0px ; margin-left: 4px&quot;&gt;+ sortProduct()&lt;br&gt;+ processingOrder()&lt;/p&gt;&lt;p style=&quot;margin: 0px ; margin-left: 4px&quot;&gt;+ prepareDelivery(Shipment): void&lt;/p&gt;&lt;p style=&quot;margin: 0px ; margin-left: 4px&quot;&gt;+ calculateOrderPrice(): float&lt;/p&gt;&lt;p style=&quot;margin: 0px ; margin-left: 4px&quot;&gt;+ checkOutOrder()&lt;/p&gt;&lt;p style=&quot;margin: 0px ; margin-left: 4px&quot;&gt;- get_Payment(): float&lt;/p&gt;&lt;p style=&quot;margin: 0px ; margin-left: 4px&quot;&gt;- chargeFee(): float&lt;/p&gt;&lt;p style=&quot;margin: 0px ; margin-left: 4px&quot;&gt;+ handleReturns()&lt;/p&gt;&lt;p style=&quot;margin: 0px ; margin-left: 4px&quot;&gt;+ disposeStock()&lt;/p&gt;&lt;p style=&quot;margin: 0px ; margin-left: 4px&quot;&gt;&lt;br&gt;&lt;/p&gt;" style="verticalAlign=top;align=left;overflow=fill;fontSize=12;fontFamily=Helvetica;html=1;hachureGap=4;pointerEvents=0;" parent="1" vertex="1">
                    <mxGeometry x="1360" y="-358" width="220" height="330" as="geometry"/>
                </mxCell>
                <mxCell id="RLTR6QcAhF7Ijwqn-D9D-37" value="" style="endArrow=none;html=1;edgeStyle=orthogonalEdgeStyle;startSize=14;endSize=14;sourcePerimeterSpacing=8;targetPerimeterSpacing=8;entryX=0.545;entryY=-0.012;entryDx=0;entryDy=0;entryPerimeter=0;" parent="1" target="RLTR6QcAhF7Ijwqn-D9D-36" edge="1">
                    <mxGeometry relative="1" as="geometry">
                        <mxPoint x="1480" y="-448" as="sourcePoint"/>
                        <mxPoint x="1610" y="-408" as="targetPoint"/>
                    </mxGeometry>
                </mxCell>
                <mxCell id="RLTR6QcAhF7Ijwqn-D9D-38" value="Administrator" style="edgeLabel;resizable=0;html=1;align=left;verticalAlign=bottom;" parent="RLTR6QcAhF7Ijwqn-D9D-37" connectable="0" vertex="1">
                    <mxGeometry x="-1" relative="1" as="geometry">
                        <mxPoint x="10" y="19" as="offset"/>
                    </mxGeometry>
                </mxCell>
                <mxCell id="RLTR6QcAhF7Ijwqn-D9D-39" value="Seller&amp;nbsp;" style="edgeLabel;resizable=0;html=1;align=right;verticalAlign=bottom;" parent="RLTR6QcAhF7Ijwqn-D9D-37" connectable="0" vertex="1">
                    <mxGeometry x="1" relative="1" as="geometry">
                        <mxPoint y="-7" as="offset"/>
                    </mxGeometry>
                </mxCell>
                <mxCell id="RLTR6QcAhF7Ijwqn-D9D-40" value="Provide_Platform" style="edgeLabel;html=1;align=center;verticalAlign=middle;resizable=0;points=[];" parent="RLTR6QcAhF7Ijwqn-D9D-37" vertex="1" connectable="0">
                    <mxGeometry x="-0.1468" y="1" relative="1" as="geometry">
                        <mxPoint as="offset"/>
                    </mxGeometry>
                </mxCell>
                <mxCell id="RLTR6QcAhF7Ijwqn-D9D-41" value="Provides" style="html=1;verticalAlign=bottom;endArrow=block;startSize=14;endSize=14;sourcePerimeterSpacing=8;targetPerimeterSpacing=8;" parent="1" edge="1">
                    <mxGeometry width="80" relative="1" as="geometry">
                        <mxPoint x="1360" y="-258" as="sourcePoint"/>
                        <mxPoint x="1250" y="-258" as="targetPoint"/>
                        <Array as="points">
                            <mxPoint x="1320" y="-258"/>
                        </Array>
                    </mxGeometry>
                </mxCell>
                <mxCell id="cUFNFo306vV55nXhxXvZ-2" value="Seller" style="edgeLabel;html=1;align=center;verticalAlign=middle;resizable=0;points=[];" parent="RLTR6QcAhF7Ijwqn-D9D-41" vertex="1" connectable="0">
                    <mxGeometry x="-0.7636" y="-1" relative="1" as="geometry">
                        <mxPoint x="-7" y="9" as="offset"/>
                    </mxGeometry>
                </mxCell>
                <mxCell id="cUFNFo306vV55nXhxXvZ-3" value="products&amp;nbsp;" style="edgeLabel;html=1;align=center;verticalAlign=middle;resizable=0;points=[];" parent="RLTR6QcAhF7Ijwqn-D9D-41" vertex="1" connectable="0">
                    <mxGeometry x="0.5091" y="1" relative="1" as="geometry">
                        <mxPoint x="-2" y="17" as="offset"/>
                    </mxGeometry>
                </mxCell>
                <mxCell id="RLTR6QcAhF7Ijwqn-D9D-46" value="" style="endArrow=none;html=1;edgeStyle=orthogonalEdgeStyle;startSize=14;endSize=14;sourcePerimeterSpacing=8;targetPerimeterSpacing=8;entryX=0.5;entryY=0;entryDx=0;entryDy=0;exitX=0.75;exitY=0;exitDx=0;exitDy=0;jumpStyle=arc;" parent="1" source="RLTR6QcAhF7Ijwqn-D9D-1" target="RLTR6QcAhF7Ijwqn-D9D-13" edge="1">
                    <mxGeometry relative="1" as="geometry">
                        <mxPoint x="510" y="-668" as="sourcePoint"/>
                        <mxPoint x="1490" y="-678" as="targetPoint"/>
                        <Array as="points">
                            <mxPoint x="477" y="-688"/>
                            <mxPoint x="1487" y="-688"/>
                        </Array>
                    </mxGeometry>
                </mxCell>
                <mxCell id="RLTR6QcAhF7Ijwqn-D9D-47" value="Purchaser" style="edgeLabel;resizable=0;html=1;align=left;verticalAlign=bottom;" parent="RLTR6QcAhF7Ijwqn-D9D-46" connectable="0" vertex="1">
                    <mxGeometry x="-1" relative="1" as="geometry"/>
                </mxCell>
                <mxCell id="RLTR6QcAhF7Ijwqn-D9D-48" value="Administrator&amp;nbsp;" style="edgeLabel;resizable=0;html=1;align=right;verticalAlign=bottom;" parent="RLTR6QcAhF7Ijwqn-D9D-46" connectable="0" vertex="1">
                    <mxGeometry x="1" relative="1" as="geometry"/>
                </mxCell>
                <mxCell id="RLTR6QcAhF7Ijwqn-D9D-49" value="Assistance&amp;nbsp;" style="edgeLabel;html=1;align=center;verticalAlign=middle;resizable=0;points=[];" parent="RLTR6QcAhF7Ijwqn-D9D-46" vertex="1" connectable="0">
                    <mxGeometry x="0.1298" y="3" relative="1" as="geometry">
                        <mxPoint x="-1" as="offset"/>
                    </mxGeometry>
                </mxCell>
                <mxCell id="RLTR6QcAhF7Ijwqn-D9D-50" value="" style="endArrow=none;html=1;edgeStyle=orthogonalEdgeStyle;startSize=14;endSize=14;sourcePerimeterSpacing=8;targetPerimeterSpacing=8;entryX=0.363;entryY=0.997;entryDx=0;entryDy=0;entryPerimeter=0;" parent="1" target="RLTR6QcAhF7Ijwqn-D9D-36" edge="1">
                    <mxGeometry relative="1" as="geometry">
                        <mxPoint x="1040" y="2" as="sourcePoint"/>
                        <mxPoint x="1441" y="-18" as="targetPoint"/>
                        <Array as="points">
                            <mxPoint x="1441" y="2"/>
                            <mxPoint x="1441" y="-29"/>
                        </Array>
                    </mxGeometry>
                </mxCell>
                <mxCell id="RLTR6QcAhF7Ijwqn-D9D-51" value="Selling" style="edgeLabel;html=1;align=center;verticalAlign=middle;resizable=0;points=[];" parent="RLTR6QcAhF7Ijwqn-D9D-50" vertex="1" connectable="0">
                    <mxGeometry x="-0.1573" y="2" relative="1" as="geometry">
                        <mxPoint as="offset"/>
                    </mxGeometry>
                </mxCell>
                <mxCell id="cUFNFo306vV55nXhxXvZ-11" value="0..n" style="edgeLabel;html=1;align=center;verticalAlign=middle;resizable=0;points=[];" parent="RLTR6QcAhF7Ijwqn-D9D-50" vertex="1" connectable="0">
                    <mxGeometry x="-0.9169" y="1" relative="1" as="geometry">
                        <mxPoint y="-11" as="offset"/>
                    </mxGeometry>
                </mxCell>
                <mxCell id="cUFNFo306vV55nXhxXvZ-12" value="1..n" style="edgeLabel;html=1;align=center;verticalAlign=middle;resizable=0;points=[];" parent="RLTR6QcAhF7Ijwqn-D9D-50" vertex="1" connectable="0">
                    <mxGeometry x="0.9439" y="3" relative="1" as="geometry">
                        <mxPoint x="-8" y="-2" as="offset"/>
                    </mxGeometry>
                </mxCell>
                <mxCell id="RLTR6QcAhF7Ijwqn-D9D-52" value="" style="endArrow=none;html=1;edgeStyle=orthogonalEdgeStyle;startSize=14;endSize=14;sourcePerimeterSpacing=8;targetPerimeterSpacing=8;exitX=0.603;exitY=1.012;exitDx=0;exitDy=0;exitPerimeter=0;entryX=0.583;entryY=1.004;entryDx=0;entryDy=0;entryPerimeter=0;" parent="1" source="RLTR6QcAhF7Ijwqn-D9D-5" target="RLTR6QcAhF7Ijwqn-D9D-36" edge="1">
                    <mxGeometry relative="1" as="geometry">
                        <mxPoint x="650" y="272" as="sourcePoint"/>
                        <mxPoint x="1488" y="-18" as="targetPoint"/>
                        <Array as="points">
                            <mxPoint x="651" y="272"/>
                            <mxPoint x="650" y="342"/>
                            <mxPoint x="1488" y="342"/>
                        </Array>
                    </mxGeometry>
                </mxCell>
                <mxCell id="RLTR6QcAhF7Ijwqn-D9D-53" value="Provide_Products" style="edgeLabel;html=1;align=center;verticalAlign=middle;resizable=0;points=[];" parent="RLTR6QcAhF7Ijwqn-D9D-52" vertex="1" connectable="0">
                    <mxGeometry x="-0.2232" y="3" relative="1" as="geometry">
                        <mxPoint as="offset"/>
                    </mxGeometry>
                </mxCell>
                <mxCell id="cUFNFo306vV55nXhxXvZ-7" value="1..n" style="edgeLabel;html=1;align=center;verticalAlign=middle;resizable=0;points=[];" parent="RLTR6QcAhF7Ijwqn-D9D-52" vertex="1" connectable="0">
                    <mxGeometry x="-0.9796" relative="1" as="geometry">
                        <mxPoint x="39" y="-8" as="offset"/>
                    </mxGeometry>
                </mxCell>
                <mxCell id="cUFNFo306vV55nXhxXvZ-8" value="1..n" style="edgeLabel;html=1;align=center;verticalAlign=middle;resizable=0;points=[];" parent="RLTR6QcAhF7Ijwqn-D9D-52" vertex="1" connectable="0">
                    <mxGeometry x="0.9818" y="-3" relative="1" as="geometry">
                        <mxPoint x="9" as="offset"/>
                    </mxGeometry>
                </mxCell>
                <mxCell id="cUFNFo306vV55nXhxXvZ-9" value="Seller" style="edgeLabel;html=1;align=center;verticalAlign=middle;resizable=0;points=[];" parent="RLTR6QcAhF7Ijwqn-D9D-52" vertex="1" connectable="0">
                    <mxGeometry x="0.9771" relative="1" as="geometry">
                        <mxPoint x="-18" as="offset"/>
                    </mxGeometry>
                </mxCell>
                <mxCell id="cUFNFo306vV55nXhxXvZ-10" value="Shipment" style="edgeLabel;html=1;align=center;verticalAlign=middle;resizable=0;points=[];" parent="RLTR6QcAhF7Ijwqn-D9D-52" vertex="1" connectable="0">
                    <mxGeometry x="-0.9827" y="2" relative="1" as="geometry">
                        <mxPoint as="offset"/>
                    </mxGeometry>
                </mxCell>
                <mxCell id="RLTR6QcAhF7Ijwqn-D9D-54" value="" style="endArrow=block;startArrow=block;endFill=1;startFill=1;html=1;startSize=14;endSize=14;sourcePerimeterSpacing=8;targetPerimeterSpacing=8;" parent="1" edge="1">
                    <mxGeometry width="160" relative="1" as="geometry">
                        <mxPoint x="1160" y="-457" as="sourcePoint"/>
                        <mxPoint x="1160" y="-400" as="targetPoint"/>
                    </mxGeometry>
                </mxCell>
                <mxCell id="RLTR6QcAhF7Ijwqn-D9D-55" value="" style="endArrow=block;startArrow=block;endFill=1;startFill=1;html=1;startSize=14;endSize=14;sourcePerimeterSpacing=8;targetPerimeterSpacing=8;" parent="1" edge="1">
                    <mxGeometry width="160" relative="1" as="geometry">
                        <mxPoint x="960" y="-508" as="sourcePoint"/>
                        <mxPoint x="1050" y="-508" as="targetPoint"/>
                    </mxGeometry>
                </mxCell>
                <mxCell id="RLTR6QcAhF7Ijwqn-D9D-56" value="1" style="edgeLabel;html=1;align=center;verticalAlign=middle;resizable=0;points=[];" parent="RLTR6QcAhF7Ijwqn-D9D-55" vertex="1" connectable="0">
                    <mxGeometry x="-0.7399" y="1" relative="1" as="geometry">
                        <mxPoint x="-2" y="-19" as="offset"/>
                    </mxGeometry>
                </mxCell>
                <mxCell id="RLTR6QcAhF7Ijwqn-D9D-57" value="0..n" style="edgeLabel;html=1;align=center;verticalAlign=middle;resizable=0;points=[];" parent="RLTR6QcAhF7Ijwqn-D9D-55" vertex="1" connectable="0">
                    <mxGeometry x="0.5935" y="4" relative="1" as="geometry">
                        <mxPoint y="-16" as="offset"/>
                    </mxGeometry>
                </mxCell>
                <mxCell id="RLTR6QcAhF7Ijwqn-D9D-58" value="Selection&amp;nbsp; &amp;nbsp;" style="edgeLabel;html=1;align=center;verticalAlign=middle;resizable=0;points=[];" parent="RLTR6QcAhF7Ijwqn-D9D-55" vertex="1" connectable="0">
                    <mxGeometry x="0.0183" y="-3" relative="1" as="geometry">
                        <mxPoint x="4" y="7" as="offset"/>
                    </mxGeometry>
                </mxCell>
                <mxCell id="RLTR6QcAhF7Ijwqn-D9D-79" value="" style="endArrow=none;html=1;fontColor=#000000;startSize=14;endSize=14;sourcePerimeterSpacing=8;targetPerimeterSpacing=8;exitX=0.25;exitY=0;exitDx=0;exitDy=0;entryX=0;entryY=0.25;entryDx=0;entryDy=0;edgeStyle=orthogonalEdgeStyle;" parent="1" source="RLTR6QcAhF7Ijwqn-D9D-1" target="RLTR6QcAhF7Ijwqn-D9D-87" edge="1">
                    <mxGeometry width="50" height="50" relative="1" as="geometry">
                        <mxPoint x="950" y="-508" as="sourcePoint"/>
                        <mxPoint x="1000" y="-558" as="targetPoint"/>
                    </mxGeometry>
                </mxCell>
                <mxCell id="RLTR6QcAhF7Ijwqn-D9D-82" value="Retailer" style="edgeLabel;html=1;align=center;verticalAlign=middle;resizable=0;points=[];fontColor=#000000;" parent="RLTR6QcAhF7Ijwqn-D9D-79" vertex="1" connectable="0">
                    <mxGeometry x="0.943" y="7" relative="1" as="geometry">
                        <mxPoint x="1" y="-3" as="offset"/>
                    </mxGeometry>
                </mxCell>
                <mxCell id="RLTR6QcAhF7Ijwqn-D9D-84" value="Shopping" style="edgeLabel;html=1;align=center;verticalAlign=middle;resizable=0;points=[];fontColor=#000000;" parent="RLTR6QcAhF7Ijwqn-D9D-79" vertex="1" connectable="0">
                    <mxGeometry x="-0.1293" relative="1" as="geometry">
                        <mxPoint x="1" as="offset"/>
                    </mxGeometry>
                </mxCell>
                <mxCell id="RLTR6QcAhF7Ijwqn-D9D-83" value="Purchaser" style="text;html=1;align=center;verticalAlign=middle;resizable=0;points=[];autosize=1;strokeColor=none;fillColor=none;fontColor=#000000;" parent="1" vertex="1">
                    <mxGeometry x="370" y="-548" width="70" height="20" as="geometry"/>
                </mxCell>
                <mxCell id="RLTR6QcAhF7Ijwqn-D9D-42" value="" style="endArrow=none;html=1;edgeStyle=orthogonalEdgeStyle;startSize=14;endSize=14;sourcePerimeterSpacing=8;targetPerimeterSpacing=8;entryX=0.5;entryY=0;entryDx=0;entryDy=0;exitX=0.994;exitY=0.218;exitDx=0;exitDy=0;exitPerimeter=0;" parent="1" source="RLTR6QcAhF7Ijwqn-D9D-36" target="RLTR6QcAhF7Ijwqn-D9D-87" edge="1">
                    <mxGeometry relative="1" as="geometry">
                        <mxPoint x="1551" y="-233" as="sourcePoint"/>
                        <mxPoint x="1170" y="-808" as="targetPoint"/>
                        <Array as="points">
                            <mxPoint x="1620" y="-286"/>
                            <mxPoint x="1620" y="-978"/>
                            <mxPoint x="820" y="-978"/>
                        </Array>
                    </mxGeometry>
                </mxCell>
                <mxCell id="RLTR6QcAhF7Ijwqn-D9D-43" value="&amp;nbsp;Seller" style="edgeLabel;resizable=0;html=1;align=left;verticalAlign=bottom;" parent="RLTR6QcAhF7Ijwqn-D9D-42" connectable="0" vertex="1">
                    <mxGeometry x="-1" relative="1" as="geometry"/>
                </mxCell>
                <mxCell id="RLTR6QcAhF7Ijwqn-D9D-45" value="Business&amp;nbsp;" style="edgeLabel;html=1;align=center;verticalAlign=middle;resizable=0;points=[];" parent="RLTR6QcAhF7Ijwqn-D9D-42" vertex="1" connectable="0">
                    <mxGeometry x="0.1657" y="-2" relative="1" as="geometry">
                        <mxPoint as="offset"/>
                    </mxGeometry>
                </mxCell>
                <mxCell id="RLTR6QcAhF7Ijwqn-D9D-78" value="Retailer" style="edgeLabel;html=1;align=center;verticalAlign=middle;resizable=0;points=[];fontColor=#000000;" parent="RLTR6QcAhF7Ijwqn-D9D-42" vertex="1" connectable="0">
                    <mxGeometry x="0.976" y="-8" relative="1" as="geometry">
                        <mxPoint x="5" y="-2" as="offset"/>
                    </mxGeometry>
                </mxCell>
                <mxCell id="RLTR6QcAhF7Ijwqn-D9D-87" value="&lt;p style=&quot;margin: 0px ; margin-top: 4px ; text-align: center&quot;&gt;&lt;b&gt;Website&lt;/b&gt;&lt;/p&gt;&lt;hr size=&quot;1&quot;&gt;&lt;p style=&quot;margin: 0px ; margin-left: 4px&quot;&gt;-domainName: String&lt;/p&gt;&lt;p style=&quot;margin: 0px ; margin-left: 4px&quot;&gt;-totalUsers: Integer&lt;/p&gt;&lt;p style=&quot;margin: 0px ; margin-left: 4px&quot;&gt;-currentSuppliers: String[]&lt;/p&gt;&lt;p style=&quot;margin: 0px ; margin-left: 4px&quot;&gt;-currentCustomers: String[]&lt;/p&gt;&lt;p style=&quot;margin: 0px ; margin-left: 4px&quot;&gt;+productList:String[]&lt;/p&gt;&lt;hr size=&quot;1&quot;&gt;&lt;p style=&quot;margin: 0px ; margin-left: 4px&quot;&gt;+ displayProducts(Product[]): void&lt;/p&gt;&lt;p style=&quot;margin: 0px ; margin-left: 4px&quot;&gt;+ addSupplier(String[], Supplier): void&lt;/p&gt;&lt;p style=&quot;margin: 0px ; margin-left: 4px&quot;&gt;+ addCustomer(String[], Customer): void&lt;/p&gt;&lt;p style=&quot;margin: 0px ; margin-left: 4px&quot;&gt;+ createCart(): ShoppingCart&lt;/p&gt;&lt;p style=&quot;margin: 0px ; margin-left: 4px&quot;&gt;&lt;br&gt;&lt;/p&gt;" style="verticalAlign=top;align=left;overflow=fill;fontSize=12;fontFamily=Helvetica;html=1;hachureGap=4;pointerEvents=0;labelBackgroundColor=none;fontColor=#000000;fillColor=#FFFFFF;" parent="1" vertex="1">
                    <mxGeometry x="705" y="-948" width="230" height="190" as="geometry"/>
                </mxCell>
                <mxCell id="RLTR6QcAhF7Ijwqn-D9D-95" style="rounded=0;jumpStyle=arc;orthogonalLoop=1;jettySize=auto;html=1;exitX=0;exitY=0.25;exitDx=0;exitDy=0;entryX=1;entryY=0.75;entryDx=0;entryDy=0;fontColor=#000000;endArrow=block;endFill=0;startSize=14;endSize=14;sourcePerimeterSpacing=8;targetPerimeterSpacing=8;" parent="1" source="RLTR6QcAhF7Ijwqn-D9D-94" target="RLTR6QcAhF7Ijwqn-D9D-4" edge="1">
                    <mxGeometry relative="1" as="geometry"/>
                </mxCell>
                <mxCell id="RLTR6QcAhF7Ijwqn-D9D-96" style="rounded=0;jumpStyle=arc;orthogonalLoop=1;jettySize=auto;html=1;exitX=0;exitY=0.75;exitDx=0;exitDy=0;entryX=1;entryY=0.5;entryDx=0;entryDy=0;fontColor=#000000;endArrow=block;endFill=0;startSize=14;endSize=14;sourcePerimeterSpacing=8;targetPerimeterSpacing=8;" parent="1" source="RLTR6QcAhF7Ijwqn-D9D-94" target="RLTR6QcAhF7Ijwqn-D9D-31" edge="1">
                    <mxGeometry relative="1" as="geometry"/>
                </mxCell>
                <mxCell id="RLTR6QcAhF7Ijwqn-D9D-94" value="&lt;p style=&quot;margin: 0px ; margin-top: 4px ; text-align: center&quot;&gt;&lt;b&gt;Order Database&lt;/b&gt;&lt;/p&gt;&lt;hr size=&quot;1&quot;&gt;&lt;p style=&quot;margin: 0px ; margin-left: 4px&quot;&gt;-customerList: Customer[]&lt;/p&gt;&lt;p style=&quot;margin: 0px ; margin-left: 4px&quot;&gt;-creditCardList: CreditCard[]&lt;/p&gt;&lt;p style=&quot;margin: 0px ; margin-left: 4px&quot;&gt;-orderList: Order[]&lt;/p&gt;&lt;p style=&quot;margin: 0px ; margin-left: 4px&quot;&gt;-paymentList: Payment[]&lt;/p&gt;&lt;hr size=&quot;1&quot;&gt;&lt;p style=&quot;margin: 0px ; margin-left: 4px&quot;&gt;+addCustomer(Customer[], Customer)&lt;/p&gt;&lt;p style=&quot;margin: 0px ; margin-left: 4px&quot;&gt;+addCreditCard(CreditCard[], CreditCard)&lt;/p&gt;&lt;p style=&quot;margin: 0px ; margin-left: 4px&quot;&gt;+addOrder(Order[], Order)&lt;/p&gt;&lt;p style=&quot;margin: 0px ; margin-left: 4px&quot;&gt;+addPayment(Payment[], Payment)&lt;/p&gt;" style="verticalAlign=top;align=left;overflow=fill;fontSize=12;fontFamily=Helvetica;html=1;hachureGap=4;pointerEvents=0;labelBackgroundColor=none;fontColor=#000000;fillColor=#FFFFFF;" parent="1" vertex="1">
                    <mxGeometry x="1120" y="42" width="250" height="170" as="geometry"/>
                </mxCell>
                <mxCell id="opRchIVWRDykoPJtatdR-1" value="&lt;p style=&quot;margin: 0px ; margin-top: 4px ; text-align: center&quot;&gt;&lt;b&gt;Learning Algorithm&lt;/b&gt;&lt;/p&gt;&lt;hr size=&quot;1&quot;&gt;&lt;p style=&quot;margin: 0px ; margin-left: 4px&quot;&gt;-customerID:Customer&lt;br&gt;-customerLikes: ProductSelection&lt;/p&gt;&lt;p style=&quot;margin: 0px ; margin-left: 4px&quot;&gt;-customerDislikes: ProductSelection&lt;/p&gt;&lt;p style=&quot;margin: 0px ; margin-left: 4px&quot;&gt;-currentPopular: Products[]&lt;/p&gt;&lt;hr size=&quot;1&quot;&gt;&lt;p style=&quot;margin: 0px ; margin-left: 4px&quot;&gt;+ analyseLikes(ShoppingCart): void&lt;br&gt;+ analyseLikes(ProductSelection): void&lt;/p&gt;&lt;p style=&quot;margin: 0px ; margin-left: 4px&quot;&gt;+ recommendProducts(): Products[]&lt;/p&gt;" style="verticalAlign=top;align=left;overflow=fill;fontSize=12;fontFamily=Helvetica;html=1;" parent="1" vertex="1">
                    <mxGeometry x="1200" y="-948" width="235" height="190" as="geometry"/>
                </mxCell>
                <mxCell id="opRchIVWRDykoPJtatdR-4" value="" style="endArrow=none;html=1;edgeStyle=orthogonalEdgeStyle;rounded=1;exitX=0.5;exitY=1;exitDx=0;exitDy=0;jumpStyle=arc;entryX=0.75;entryY=0;entryDx=0;entryDy=0;" parent="1" source="opRchIVWRDykoPJtatdR-1" target="RLTR6QcAhF7Ijwqn-D9D-12" edge="1">
                    <mxGeometry relative="1" as="geometry">
                        <mxPoint x="900" y="-628" as="sourcePoint"/>
                        <mxPoint x="1220" y="-630" as="targetPoint"/>
                        <Array as="points">
                            <mxPoint x="1318" y="-640"/>
                            <mxPoint x="1200" y="-640"/>
                        </Array>
                    </mxGeometry>
                </mxCell>
                <mxCell id="opRchIVWRDykoPJtatdR-5" value="Data_Sample" style="edgeLabel;resizable=0;html=1;align=left;verticalAlign=bottom;" parent="opRchIVWRDykoPJtatdR-4" connectable="0" vertex="1">
                    <mxGeometry x="-1" relative="1" as="geometry">
                        <mxPoint y="15" as="offset"/>
                    </mxGeometry>
                </mxCell>
                <mxCell id="opRchIVWRDykoPJtatdR-6" value="Analyses" style="edgeLabel;resizable=0;html=1;align=right;verticalAlign=bottom;" parent="opRchIVWRDykoPJtatdR-4" connectable="0" vertex="1">
                    <mxGeometry x="1" relative="1" as="geometry"/>
                </mxCell>
                <mxCell id="opRchIVWRDykoPJtatdR-24" value="Analysis" style="edgeLabel;html=1;align=center;verticalAlign=middle;resizable=0;points=[];" parent="opRchIVWRDykoPJtatdR-4" vertex="1" connectable="0">
                    <mxGeometry x="0.1564" y="1" relative="1" as="geometry">
                        <mxPoint y="-1" as="offset"/>
                    </mxGeometry>
                </mxCell>
                <mxCell id="opRchIVWRDykoPJtatdR-7" value="" style="endArrow=none;html=1;edgeStyle=orthogonalEdgeStyle;rounded=1;exitX=1;exitY=0.5;exitDx=0;exitDy=0;entryX=0;entryY=0.5;entryDx=0;entryDy=0;startArrow=diamondThin;startFill=1;endSize=14;startSize=24;targetPerimeterSpacing=8;sourcePerimeterSpacing=8;" parent="1" source="RLTR6QcAhF7Ijwqn-D9D-87" target="opRchIVWRDykoPJtatdR-1" edge="1">
                    <mxGeometry relative="1" as="geometry">
                        <mxPoint x="940" y="-866" as="sourcePoint"/>
                        <mxPoint x="1020" y="-900" as="targetPoint"/>
                    </mxGeometry>
                </mxCell>
                <mxCell id="opRchIVWRDykoPJtatdR-8" value="Sub_System" style="edgeLabel;resizable=0;html=1;align=left;verticalAlign=bottom;" parent="opRchIVWRDykoPJtatdR-7" connectable="0" vertex="1">
                    <mxGeometry x="-1" relative="1" as="geometry">
                        <mxPoint y="-7" as="offset"/>
                    </mxGeometry>
                </mxCell>
                <mxCell id="opRchIVWRDykoPJtatdR-9" value="Super_System" style="edgeLabel;resizable=0;html=1;align=right;verticalAlign=bottom;" parent="opRchIVWRDykoPJtatdR-7" connectable="0" vertex="1">
                    <mxGeometry x="1" relative="1" as="geometry">
                        <mxPoint x="-10" y="23" as="offset"/>
                    </mxGeometry>
                </mxCell>
                <mxCell id="opRchIVWRDykoPJtatdR-10" value="" style="endArrow=none;html=1;edgeStyle=orthogonalEdgeStyle;rounded=1;exitX=0.75;exitY=0;exitDx=0;exitDy=0;entryX=0;entryY=0.861;entryDx=0;entryDy=0;jumpStyle=arc;entryPerimeter=0;" parent="1" source="RLTR6QcAhF7Ijwqn-D9D-3" target="opRchIVWRDykoPJtatdR-1" edge="1">
                    <mxGeometry relative="1" as="geometry">
                        <mxPoint x="900" y="-628" as="sourcePoint"/>
                        <mxPoint x="1060" y="-628" as="targetPoint"/>
                        <Array as="points">
                            <mxPoint x="890" y="-728"/>
                            <mxPoint x="1090" y="-728"/>
                            <mxPoint x="1090" y="-784"/>
                        </Array>
                    </mxGeometry>
                </mxCell>
                <mxCell id="opRchIVWRDykoPJtatdR-11" value="Analyses" style="edgeLabel;resizable=0;html=1;align=left;verticalAlign=bottom;" parent="opRchIVWRDykoPJtatdR-10" connectable="0" vertex="1">
                    <mxGeometry x="-1" relative="1" as="geometry"/>
                </mxCell>
                <mxCell id="opRchIVWRDykoPJtatdR-12" value="Data_Sample" style="edgeLabel;resizable=0;html=1;align=right;verticalAlign=bottom;" parent="opRchIVWRDykoPJtatdR-10" connectable="0" vertex="1">
                    <mxGeometry x="1" relative="1" as="geometry">
                        <mxPoint x="-2" y="16" as="offset"/>
                    </mxGeometry>
                </mxCell>
                <mxCell id="opRchIVWRDykoPJtatdR-22" value="Analysis" style="edgeLabel;html=1;align=center;verticalAlign=middle;resizable=0;points=[];" parent="opRchIVWRDykoPJtatdR-10" vertex="1" connectable="0">
                    <mxGeometry x="0.0152" relative="1" as="geometry">
                        <mxPoint as="offset"/>
                    </mxGeometry>
                </mxCell>
                <mxCell id="opRchIVWRDykoPJtatdR-18" style="edgeStyle=elbowEdgeStyle;rounded=1;jumpStyle=arc;orthogonalLoop=1;jettySize=auto;elbow=vertical;html=1;exitX=0.25;exitY=1;exitDx=0;exitDy=0;entryX=0.5;entryY=1;entryDx=0;entryDy=0;endArrow=none;endFill=0;startSize=14;endSize=14;sourcePerimeterSpacing=8;targetPerimeterSpacing=8;" parent="1" source="opRchIVWRDykoPJtatdR-13" target="RLTR6QcAhF7Ijwqn-D9D-94" edge="1">
                    <mxGeometry relative="1" as="geometry">
                        <Array as="points">
                            <mxPoint x="750" y="410"/>
                        </Array>
                    </mxGeometry>
                </mxCell>
                <mxCell id="opRchIVWRDykoPJtatdR-40" value="Confirms_Order" style="edgeLabel;html=1;align=center;verticalAlign=middle;resizable=0;points=[];fontSize=11;" parent="opRchIVWRDykoPJtatdR-18" vertex="1" connectable="0">
                    <mxGeometry x="-0.0984" relative="1" as="geometry">
                        <mxPoint as="offset"/>
                    </mxGeometry>
                </mxCell>
                <mxCell id="opRchIVWRDykoPJtatdR-13" value="&lt;p style=&quot;margin: 0px ; margin-top: 4px ; text-align: center&quot;&gt;&lt;b&gt;Warehouse&lt;/b&gt;&lt;/p&gt;&lt;hr size=&quot;1&quot;&gt;&lt;p style=&quot;margin: 0px ; margin-left: 4px&quot;&gt;-currentInventory: Product[]&lt;br&gt;-address: Address&lt;/p&gt;&lt;p style=&quot;margin: 0px ; margin-left: 4px&quot;&gt;-currentShipments: Shipment[]&lt;/p&gt;&lt;hr size=&quot;1&quot;&gt;&lt;p style=&quot;margin: 0px ; margin-left: 4px&quot;&gt;+findCourier(order): Shipment&lt;br&gt;+isStock(order): boolean&lt;/p&gt;&lt;p style=&quot;margin: 0px ; margin-left: 4px&quot;&gt;+getItems(order) Product[]&lt;/p&gt;" style="verticalAlign=top;align=left;overflow=fill;fontSize=12;fontFamily=Helvetica;html=1;" parent="1" vertex="1">
                    <mxGeometry x="180" y="122" width="190" height="140" as="geometry"/>
                </mxCell>
                <mxCell id="opRchIVWRDykoPJtatdR-15" value="" style="endArrow=none;html=1;edgeStyle=elbowEdgeStyle;startSize=14;endSize=14;sourcePerimeterSpacing=8;targetPerimeterSpacing=8;jumpStyle=arc;exitX=0.75;exitY=1;exitDx=0;exitDy=0;entryX=0.25;entryY=1;entryDx=0;entryDy=0;elbow=vertical;rounded=1;" parent="1" source="opRchIVWRDykoPJtatdR-13" target="RLTR6QcAhF7Ijwqn-D9D-5" edge="1">
                    <mxGeometry relative="1" as="geometry">
                        <mxPoint x="310" y="332" as="sourcePoint"/>
                        <mxPoint x="470" y="332" as="targetPoint"/>
                        <Array as="points">
                            <mxPoint x="430" y="342"/>
                        </Array>
                    </mxGeometry>
                </mxCell>
                <mxCell id="opRchIVWRDykoPJtatdR-16" value="Collects" style="edgeLabel;resizable=0;html=1;align=left;verticalAlign=bottom;" parent="opRchIVWRDykoPJtatdR-15" connectable="0" vertex="1">
                    <mxGeometry x="-1" relative="1" as="geometry">
                        <mxPoint y="18" as="offset"/>
                    </mxGeometry>
                </mxCell>
                <mxCell id="opRchIVWRDykoPJtatdR-17" value="Tracks" style="edgeLabel;resizable=0;html=1;align=right;verticalAlign=bottom;" parent="opRchIVWRDykoPJtatdR-15" connectable="0" vertex="1">
                    <mxGeometry x="1" relative="1" as="geometry">
                        <mxPoint x="-10" y="18" as="offset"/>
                    </mxGeometry>
                </mxCell>
                <mxCell id="opRchIVWRDykoPJtatdR-35" value="Starts_Shipment" style="edgeLabel;html=1;align=center;verticalAlign=middle;resizable=0;points=[];fontSize=11;" parent="opRchIVWRDykoPJtatdR-15" vertex="1" connectable="0">
                    <mxGeometry x="-0.0858" y="1" relative="1" as="geometry">
                        <mxPoint as="offset"/>
                    </mxGeometry>
                </mxCell>
                <mxCell id="opRchIVWRDykoPJtatdR-19" value="1" style="text;html=1;align=center;verticalAlign=middle;resizable=0;points=[];autosize=1;strokeColor=none;fillColor=none;" parent="1" vertex="1">
                    <mxGeometry x="1170" y="-880" width="20" height="20" as="geometry"/>
                </mxCell>
                <mxCell id="opRchIVWRDykoPJtatdR-20" value="1..n" style="text;html=1;align=center;verticalAlign=middle;resizable=0;points=[];autosize=1;strokeColor=none;fillColor=none;" parent="1" vertex="1">
                    <mxGeometry x="930" y="-840" width="40" height="20" as="geometry"/>
                </mxCell>
                <mxCell id="opRchIVWRDykoPJtatdR-21" value="0..n" style="text;html=1;align=center;verticalAlign=middle;resizable=0;points=[];autosize=1;strokeColor=none;fillColor=none;" parent="1" vertex="1">
                    <mxGeometry x="850" y="-660" width="40" height="20" as="geometry"/>
                </mxCell>
                <mxCell id="opRchIVWRDykoPJtatdR-23" value="1..n" style="text;html=1;align=center;verticalAlign=middle;resizable=0;points=[];autosize=1;strokeColor=none;fillColor=none;" parent="1" vertex="1">
                    <mxGeometry x="1160" y="-810" width="40" height="20" as="geometry"/>
                </mxCell>
                <mxCell id="opRchIVWRDykoPJtatdR-25" value="1..n" style="text;html=1;align=center;verticalAlign=middle;resizable=0;points=[];autosize=1;strokeColor=none;fillColor=none;" parent="1" vertex="1">
                    <mxGeometry x="1275" y="-760" width="40" height="20" as="geometry"/>
                </mxCell>
                <mxCell id="opRchIVWRDykoPJtatdR-26" value="0..n" style="text;html=1;align=center;verticalAlign=middle;resizable=0;points=[];autosize=1;strokeColor=none;fillColor=none;" parent="1" vertex="1">
                    <mxGeometry x="1200" y="-628" width="40" height="20" as="geometry"/>
                </mxCell>
                <mxCell id="opRchIVWRDykoPJtatdR-27" value="&lt;font style=&quot;font-size: 11px&quot;&gt;Located_At&lt;/font&gt;" style="text;html=1;align=center;verticalAlign=middle;resizable=0;points=[];autosize=1;strokeColor=none;fillColor=none;" parent="1" vertex="1">
                    <mxGeometry x="245" y="-60" width="70" height="20" as="geometry"/>
                </mxCell>
                <mxCell id="opRchIVWRDykoPJtatdR-30" value="1" style="text;html=1;align=center;verticalAlign=middle;resizable=0;points=[];autosize=1;strokeColor=none;fillColor=none;fontSize=11;" parent="1" vertex="1">
                    <mxGeometry x="300" y="-40" width="20" height="20" as="geometry"/>
                </mxCell>
                <mxCell id="opRchIVWRDykoPJtatdR-31" value="Address_Of" style="text;html=1;align=center;verticalAlign=middle;resizable=0;points=[];autosize=1;strokeColor=none;fillColor=none;fontSize=11;" parent="1" vertex="1">
                    <mxGeometry x="230" y="102" width="70" height="20" as="geometry"/>
                </mxCell>
                <mxCell id="opRchIVWRDykoPJtatdR-32" value="1..n" style="text;html=1;align=center;verticalAlign=middle;resizable=0;points=[];autosize=1;strokeColor=none;fillColor=none;fontSize=11;" parent="1" vertex="1">
                    <mxGeometry x="580" y="262" width="30" height="20" as="geometry"/>
                </mxCell>
                <mxCell id="opRchIVWRDykoPJtatdR-33" value="1..n" style="text;html=1;align=center;verticalAlign=middle;resizable=0;points=[];autosize=1;strokeColor=none;fillColor=none;fontSize=11;" parent="1" vertex="1">
                    <mxGeometry x="290" y="262" width="30" height="20" as="geometry"/>
                </mxCell>
                <mxCell id="opRchIVWRDykoPJtatdR-34" value="1..n" style="text;html=1;align=center;verticalAlign=middle;resizable=0;points=[];autosize=1;strokeColor=none;fillColor=none;fontSize=11;" parent="1" vertex="1">
                    <mxGeometry x="200" y="102" width="30" height="20" as="geometry"/>
                </mxCell>
                <mxCell id="opRchIVWRDykoPJtatdR-36" value="Orders_Stock" style="text;html=1;align=center;verticalAlign=middle;resizable=0;points=[];autosize=1;strokeColor=none;fillColor=none;fontSize=11;" parent="1" vertex="1">
                    <mxGeometry x="150" y="262" width="80" height="20" as="geometry"/>
                </mxCell>
                <mxCell id="opRchIVWRDykoPJtatdR-37" value="1..n" style="text;html=1;align=center;verticalAlign=middle;resizable=0;points=[];autosize=1;strokeColor=none;fillColor=none;fontSize=11;" parent="1" vertex="1">
                    <mxGeometry x="230" y="262" width="30" height="20" as="geometry"/>
                </mxCell>
                <mxCell id="opRchIVWRDykoPJtatdR-38" value="References" style="text;html=1;align=center;verticalAlign=middle;resizable=0;points=[];autosize=1;strokeColor=none;fillColor=none;fontSize=11;" parent="1" vertex="1">
                    <mxGeometry x="1180" y="212" width="70" height="20" as="geometry"/>
                </mxCell>
                <mxCell id="opRchIVWRDykoPJtatdR-39" value="1" style="text;html=1;align=center;verticalAlign=middle;resizable=0;points=[];autosize=1;strokeColor=none;fillColor=none;fontSize=11;" parent="1" vertex="1">
                    <mxGeometry x="1250" y="212" width="20" height="20" as="geometry"/>
                </mxCell>
            </root>
        </mxGraphModel>
    </diagram>
</mxfile>